<svg width="30" height="27" viewBox="0 0 30 27" fill="none" xmlns="http://www.w3.org/2000/svg">
<path d="M23.8875 9.6401L22.6688 8.75044V5.81289C22.679 5.70483 22.664 5.59604 22.6249 5.49342C22.5857 5.39081 22.5232 5.29659 22.4412 5.21673C22.3592 5.13688 22.2597 5.07313 22.1487 5.02952C22.0378 4.98591 21.918 4.96339 21.7969 4.96339C21.6758 4.96339 21.5559 4.98591 21.445 5.02952C21.3341 5.07313 21.2345 5.13688 21.1526 5.21673C21.0706 5.29659 21.0081 5.39081 20.9689 5.49342C20.9297 5.59604 20.9148 5.70483 20.925 5.81289V7.45232L17.7688 5.16383C16.9874 4.59205 16.0092 4.27969 15 4.27969C13.9908 4.27969 13.0127 4.59205 12.2313 5.16383L6.11251 9.6401C5.61222 10.0035 5.20892 10.4624 4.9321 10.9832C4.65528 11.504 4.51193 12.0736 4.51251 12.6504V18.9731C4.51251 20.0119 4.97345 21.0082 5.79392 21.7427C6.61439 22.4772 7.72719 22.8899 8.88751 22.8899H21.1188C22.2791 22.8899 23.3919 22.4772 24.2124 21.7427C25.0328 21.0082 25.4938 20.0119 25.4938 18.9731V12.628C25.4899 12.0546 25.3438 11.4891 25.066 10.9723C24.7882 10.4556 24.3857 10.0006 23.8875 9.6401ZM12.3813 21.2952V15.8789C12.4141 15.2762 12.7047 14.7079 13.1928 14.2918C13.6809 13.8756 14.3291 13.6435 15.0031 13.6435C15.6772 13.6435 16.3254 13.8756 16.8135 14.2918C17.3016 14.7079 17.5921 15.2762 17.625 15.8789V21.2952H12.3813ZM23.75 18.9508C23.7484 19.5721 23.4719 20.1675 22.9812 20.6069C22.4904 21.0462 21.8253 21.2937 21.1313 21.2952H19.375V15.8789C19.375 14.8401 18.9141 13.8439 18.0936 13.1094C17.2731 12.3748 16.1603 11.9622 15 11.9622C13.8397 11.9622 12.7269 12.3748 11.9064 13.1094C11.086 13.8439 10.625 14.8401 10.625 15.8789V21.2952H8.87501C8.1799 21.2952 7.51317 21.0484 7.02107 20.6089C6.52896 20.1694 6.25167 19.5731 6.25001 18.9508V12.628C6.2496 12.2799 6.33576 11.9362 6.50225 11.6216C6.66873 11.3071 6.91136 11.0297 7.21251 10.8095L13.3313 6.33325C13.7998 5.99345 14.3845 5.80803 14.9875 5.80803C15.5905 5.80803 16.1752 5.99345 16.6438 6.33325L22.7625 10.8095C23.0683 11.0275 23.3156 11.3039 23.4865 11.6186C23.6574 11.9332 23.7474 12.2781 23.75 12.628V18.9508Z" fill="#878787"/>
</svg>
