<svg width="34" height="34" viewBox="0 0 34 34" fill="none" xmlns="http://www.w3.org/2000/svg">
<g clip-path="url(#clip0_1_38)">
<path d="M15.3801 27.3743C15.2572 27.272 15.1606 27.1417 15.0984 26.9943L12.9078 21.6708L7.28478 20.4379C7.10194 20.3982 6.93392 20.3079 6.79981 20.1774C6.66571 20.047 6.5709 19.8815 6.52617 19.6998C6.48144 19.5181 6.48858 19.3275 6.54677 19.1497C6.60496 18.9719 6.71188 18.8139 6.85537 18.6939L11.2403 15.0238L10.6554 9.31135C10.6393 9.13046 10.6729 8.94862 10.7524 8.78535C10.8319 8.62208 10.9543 8.48354 11.1066 8.3846C11.2653 8.28571 11.4485 8.23327 11.6354 8.23323C11.8223 8.23318 12.0055 8.28554 12.1642 8.38435L17.0642 11.4124L22.2845 9.09601C22.4559 9.01913 22.6455 8.99209 22.8315 9.01797C23.0176 9.04386 23.1926 9.12164 23.3365 9.24239C23.4804 9.36314 23.5874 9.52199 23.6452 9.70073C23.703 9.87947 23.7093 10.0709 23.6633 10.253L22.318 15.8079L26.151 20.1076C26.2758 20.2467 26.3592 20.418 26.3916 20.6021C26.424 20.7862 26.4042 20.9757 26.3344 21.1491C26.2634 21.3163 26.1482 21.4609 26.0012 21.5676C25.8542 21.6742 25.681 21.7388 25.5001 21.7545L19.7728 22.1704L16.92 27.126C16.8268 27.2926 16.6879 27.429 16.5197 27.5192C16.3515 27.6093 16.161 27.6495 15.9708 27.6349C15.7505 27.6157 15.5428 27.5241 15.3801 27.3743Z" fill="white"/>
</g>
<defs>
<clipPath id="clip0_1_38">
<rect width="24" height="24" fill="white" transform="translate(15.4269) rotate(40)"/>
</clipPath>
</defs>
</svg>
